<svg xmlns="http://www.w3.org/2000/svg" viewBox="0 0 700 700" width="700" height="700" style="width: 100%; height: 100%; transform: translate3d(0px, 0px, 0px);" preserveAspectRatio="xMidYMid meet"><defs><clipPath id="__lottie_element_76"><rect width="700" height="700" x="0" y="0"></rect></clipPath></defs><g clip-path="url(#__lottie_element_76)"><g style="display: block;" transform="matrix(3,0,0,3,162.4759979248047,354.33001708984375)" opacity="1"><g opacity="1" transform="matrix(1,0,0,1,0,0)"><path stroke-linecap="round" stroke-linejoin="round" fill-opacity="0" stroke="rgb(1,225,148)" stroke-opacity="1" stroke-width="4" d=" M99.56500244140625,22.724000930786133 C99.56500244140625,22.724000930786133 110.16200256347656,14.70300006866455 122.31400299072266,5.581999778747559 C133.4290008544922,-2.76200008392334 142.38499450683594,-0.7739999890327454 149.79299926757812,5.1479997634887695 C151.5970001220703,6.590000152587891 151.6909942626953,9.305999755859375 150.00999450683594,10.890000343322754 C150.00999450683594,10.890000343322754 94.46199798583984,63.194000244140625 94.46199798583984,63.194000244140625 C92.94100189208984,64.625 90.93000030517578,65.4219970703125 88.84400177001953,65.4219970703125 C88.84400177001953,65.4219970703125 28.72100067138672,65.4219970703125 28.72100067138672,65.4219970703125 C23.8799991607666,65.4219970703125 19.256999969482422,67.4229965209961 15.942999839782715,70.94999694824219 C15.942999839782715,70.94999694824219 0,87.91799926757812 0,87.91799926757812"></path></g></g><g style="display: block;" transform="matrix(3,0,0,3,82.48500061035156,391.281005859375)" opacity="1"><g opacity="1" transform="matrix(1,0,0,1,0,0)"><path stroke-linecap="round" stroke-linejoin="round" fill-opacity="0" stroke="rgb(1,225,148)" stroke-opacity="1" stroke-width="4" d=" M72.07599639892578,28.839000701904297 C72.07599639892578,28.839000701904297 117.24299621582031,28.83799934387207 117.24299621582031,28.83799934387207 C118.62899780273438,28.83799934387207 119.74099731445312,27.666000366210938 119.64099884033203,26.283000946044922 C118.54000091552734,10.994000434875488 107.54199981689453,9.538000106811523 104.08899688720703,9.538000106811523 C104.08899688720703,9.538000106811523 81.197998046875,9.536999702453613 81.197998046875,9.536999702453613 C65.85199737548828,-3.7149999141693115 42.487998962402344,-3.190999984741211 27.37700080871582,11.32800006866455 C27.37700080871582,11.32800006866455 0,37.632999420166016 0,37.632999420166016"></path></g></g><g style="display: block;" transform="matrix(3,0,0,3,248.10899353027344,80.927001953125)" opacity="1"><g opacity="1" transform="matrix(1,0,0,1,0,0)"><path stroke-linecap="round" stroke-linejoin="round" fill-opacity="0" stroke="rgb(1,225,148)" stroke-opacity="1" stroke-width="4" d=" M94.0719985961914,47.34700012207031 C94.0719985961914,73.49700164794922 73.01300048828125,94.69400024414062 47.0359992980957,94.69400024414062 C21.058000564575195,94.69400024414062 0,73.49700164794922 0,47.34700012207031 C0,21.19700050354004 21.058000564575195,0 47.0359992980957,0 C73.01300048828125,0 94.0719985961914,21.19700050354004 94.0719985961914,47.34700012207031z"></path></g></g><g style="display: block;" transform="matrix(3,0,0,3,392.24798583984375,302.09100341796875)" opacity="1"><g opacity="1" transform="matrix(1,0,0,1,0,0)"><path stroke-linecap="round" stroke-linejoin="round" fill-opacity="0" stroke="rgb(1,225,148)" stroke-opacity="1" stroke-width="4" d=" M0,-5.25600004196167 C0,-5.25600004196167 0,5.25600004196167 0,5.25600004196167"></path></g></g><g style="display: block;" transform="matrix(3,0,0,3,346.5010070800781,159.61599731445312)" opacity="1"><g opacity="1" transform="matrix(1,0,0,1,0,0)"><path stroke-linecap="round" stroke-linejoin="round" fill-opacity="0" stroke="rgb(1,225,148)" stroke-opacity="1" stroke-width="4" d=" M28.47800064086914,8.630000114440918 C23.81100082397461,-3.8959999084472656 2.753000020980835,-2.4079999923706055 2.5959999561309814,10.638999938964844 C2.5250000953674316,16.474000930786133 9.321999549865723,19.160999298095703 15.008000373840332,20.065000534057617 C35.7140007019043,23.356000900268555 29.9950008392334,42.95899963378906 15.008000373840332,42.21500015258789 C3.634999990463257,41.650001525878906 0.3499999940395355,33.909000396728516 0,32.05799865722656"></path></g></g><g style="display: block;" transform="matrix(3,0,0,3,392.2480163574219,143.8489990234375)" opacity="1"><g opacity="1" transform="matrix(1,0,0,1,0,0)"><path stroke-linecap="round" stroke-linejoin="round" fill-opacity="0" stroke="rgb(1,225,148)" stroke-opacity="1" stroke-width="4" d=" M0,-5.25600004196167 C0,-5.25600004196167 0,5.25600004196167 0,5.25600004196167"></path></g></g></g></svg>